<?xml version="1.0" standalone="no"?>
<!DOCTYPE svg PUBLIC "-//W3C//DTD SVG 20010904//EN"
 "http://www.w3.org/TR/2001/REC-SVG-20010904/DTD/svg10.dtd">
<svg version="1.0" xmlns="http://www.w3.org/2000/svg"
 width="504.000000pt" height="512.000000pt" viewBox="0 0 504.000000 512.000000"
 preserveAspectRatio="xMidYMid meet">

<g transform="translate(0.000000,512.000000) scale(0.100000,-0.100000)"
fill="#000000" stroke="none">
<path d="M3740 4335 l0 -320 -357 -430 c-196 -236 -570 -689 -831 -1005 -262
-316 -495 -599 -520 -627 l-44 -53 903 2 c503 2 687 4 416 5 -301 2 -487 7
-485 13 2 5 296 359 653 786 358 427 655 785 662 794 9 13 13 104 14 336 l1
319 -189 228 c-103 126 -196 238 -205 250 -17 21 -18 7 -18 -298z"/>
<path d="M731 3758 c28 -35 122 -147 207 -250 l156 -188 428 -2 429 -3 -160
-190 c-88 -104 -389 -464 -670 -798 l-511 -609 0 -321 0 -322 208 -252 207
-252 1588 0 1587 -1 0 418 0 417 -192 233 -193 233 -5 -278 c-3 -153 -6 -272
-8 -264 -1 9 -12 12 -32 9 -27 -4 -30 -2 -30 23 0 41 -17 44 -24 4 -4 -19 -11
-35 -16 -35 -6 0 -10 -34 -10 -75 l0 -75 -1465 0 -1465 0 0 71 c0 38 -4 68 -9
65 -5 -3 -12 14 -16 39 -7 48 -25 52 -25 6 0 -25 -3 -28 -26 -23 -16 3 -30 -1
-35 -9 -5 -8 -9 65 -9 181 l0 195 32 40 c127 155 1676 2026 1696 2048 l26 27
-858 0 -858 0 53 -62z"/>
<path d="M2135 2973 c-29 -8 -103 -16 -175 -18 l-125 -4 -293 -353 c-161 -194
-328 -396 -371 -448 l-78 -95 76 0 c127 0 418 -16 479 -25 31 -6 104 -10 161
-10 97 0 103 -1 91 -17 -28 -41 66 69 294 342 310 372 509 614 518 628 11 20
-512 20 -577 0z"/>
<path d="M2190 1760 c0 -8 269 -3 279 6 2 2 -59 4 -137 4 -84 0 -142 -4 -142
-10z"/>
</g>
</svg>
